<svg width="108" height="108" viewBox="0 0 108 108" fill="none" xmlns="http://www.w3.org/2000/svg">
    <rect width="108" height="108" rx="20" fill="#050806"/>
    <rect x="10" y="14" width="88" height="80" rx="10" fill="#102A18"/>
    <path d="M54 21L80 31V50C80 68 69.1 81.8 54 88C38.9 81.8 28 68 28 50V31L54 21Z" fill="#00C853"/>
    <path d="M54 29L72 36V50C72 62.4 64.9 72.5 54 77.7C43.1 72.5 36 62.4 36 50V36L54 29Z" fill="#07120B"/>
    <path fill-rule="evenodd" clip-rule="evenodd" d="M54 38C47.9 38 43 42.9 43 49C43 55.1 47.9 60 54 60C60.1 60 65 55.1 65 49C65 42.9 60.1 38 54 38ZM54 44C51.2 44 49 46.2 49 49C49 51.8 51.2 54 54 54C56.8 54 59 51.8 59 49C59 46.2 56.8 44 54 44Z" fill="#00C853"/>
    <path d="M51 56H57V70H51V56Z" fill="#00C853"/>
    <path d="M62 42L55 53H63L48 74L52 59H45L51 42H62Z" fill="#A7FFBC"/>
    <path d="M45 81H63V86H45V81Z" fill="#A7FFBC"/>
</svg>
